<?xml version="1.0" encoding="UTF-8" standalone="no"?>
<!-- Created with Inkscape (http://www.inkscape.org/) -->

<svg
   xmlns:dc="http://purl.org/dc/elements/1.1/"
   xmlns:cc="http://creativecommons.org/ns#"
   xmlns:rdf="http://www.w3.org/1999/02/22-rdf-syntax-ns#"
   xmlns:svg="http://www.w3.org/2000/svg"
   xmlns="http://www.w3.org/2000/svg"
   xmlns:sodipodi="http://sodipodi.sourceforge.net/DTD/sodipodi-0.dtd"
   xmlns:inkscape="http://www.inkscape.org/namespaces/inkscape"
   version="1.0"
   width="22"
   height="22"
   id="svg4585"
   inkscape:version="0.48.3.1 r9886"
   sodipodi:docname="wifi.svg"
   inkscape:export-filename="/home/gpantanetti/src/nemesys-light/icons/wifi_gray.png"
   inkscape:export-xdpi="245"
   inkscape:export-ydpi="245">
  <metadata
     id="metadata12">
    <rdf:RDF>
      <cc:Work
         rdf:about="">
        <dc:format>image/svg+xml</dc:format>
        <dc:type
           rdf:resource="http://purl.org/dc/dcmitype/StillImage" />
        <dc:title />
      </cc:Work>
    </rdf:RDF>
  </metadata>
  <sodipodi:namedview
     pagecolor="#ffffff"
     bordercolor="#666666"
     borderopacity="1"
     objecttolerance="10"
     gridtolerance="10"
     guidetolerance="10"
     inkscape:pageopacity="0"
     inkscape:pageshadow="2"
     inkscape:window-width="1920"
     inkscape:window-height="1058"
     id="namedview10"
     showgrid="false"
     inkscape:zoom="15.318182"
     inkscape:cx="2.8071217"
     inkscape:cy="11"
     inkscape:window-x="-8"
     inkscape:window-y="-8"
     inkscape:window-maximized="1"
     inkscape:current-layer="svg4585" />
  <defs
     id="defs4587" />
  <g
     id="g3055">
    <path
       inkscape:connector-curvature="0"
       id="path3047"
       d="M 1.5714062,8.196041 C 1.2774484,8.0461483 1.1085594,7.8062843 1.0642203,7.4757118 1.0148298,7.1074779 1.2154836,6.7826157 1.9387139,6.0598907 3.9254154,4.0745771 6.3833927,2.906153 9.4216377,2.5028079 10.164865,2.40414 12.068164,2.4198193 12.915605,2.531591 c 2.879843,0.3798317 5.483303,1.6488728 7.402534,3.6083212 0.844884,0.8625887 1.000707,1.2518528 0.686312,1.714488 C 20.793338,8.1650556 20.436416,8.3334289 20.10698,8.2777711 19.881585,8.2396909 19.730119,8.1196841 19.045187,7.43651 17.47884,5.8741847 15.647001,4.9051776 13.407503,4.4542848 12.516565,4.2749066 10.56131,4.20843 9.6113671,4.3252203 8.2484417,4.4927845 7.0793564,4.834106 5.9406528,5.3969074 4.8345255,5.9436081 4.1640622,6.4261737 3.2672995,7.3210517 2.2687305,8.3175221 2.040538,8.4352571 1.5714062,8.196041 z"
       style="fill:#888a85;fill-opacity:1" />
    <path
       inkscape:connector-curvature="0"
       id="path3049"
       d="M 17.437722,11.503885 C 17.352061,11.469609 17.114547,11.286558 16.909914,11.097104 15.46207,9.7566562 13.553739,9.0112833 11.326409,8.9162498 9.7994691,8.8510998 8.4802413,9.0979537 7.2789317,9.6736141 6.5038481,10.045029 5.8984272,10.457696 5.4510386,10.91954 4.8932087,11.495395 4.4306886,11.642857 4.0020634,11.381508 3.5420209,11.101002 3.4322003,10.547121 3.7433894,10.076882 4.1067105,9.5278669 5.4409995,8.5214161 6.4335844,8.0476749 8.9724319,6.835933 12.255517,6.7529692 15.047478,7.8300011 c 1.801381,0.6949041 3.627212,2.128649 3.622071,2.8442529 -0.0017,0.24037 -0.273973,0.648186 -0.520163,0.779187 -0.247631,0.131769 -0.469172,0.147472 -0.711664,0.05044 z"
       style="fill:#888a85;fill-opacity:1" />
    <path
       inkscape:connector-curvature="0"
       id="path3051"
       d="m 14.721068,14.540469 c -0.03591,-0.0093 -0.139081,-0.03295 -0.22928,-0.05258 -0.0902,-0.01963 -0.318442,-0.167529 -0.507206,-0.328655 -0.409036,-0.349147 -0.998744,-0.647878 -1.581021,-0.800905 -0.525472,-0.138099 -1.943853,-0.154239 -2.5133533,-0.0286 -0.552588,0.121907 -1.2759652,0.469936 -1.609412,0.774315 -0.3759948,0.343218 -0.5130821,0.408123 -0.8619997,0.408123 -0.5060381,0 -0.9558012,-0.52795 -0.8538738,-1.002311 0.1484264,-0.690764 1.3427195,-1.546675 2.6107085,-1.871009 2.2153903,-0.566666 4.6195023,-0.112148 5.9398613,1.122984 0.426281,0.398765 0.602979,0.755601 0.526012,1.062262 -0.0881,0.351 -0.648054,0.786817 -0.920436,0.716377 z"
       style="fill:#888a85;fill-opacity:1" />
    <path
       inkscape:connector-curvature="0"
       id="path3053"
       d="M 10.151191,17.70408 C 9.4557831,17.031336 9.3386683,16.810483 9.4879152,16.453285 c 0.051564,-0.123409 0.182397,-0.287501 0.2907408,-0.364649 0.1831645,-0.130424 0.275748,-0.140268 1.319267,-0.140268 1.043518,0 1.136102,0.0098 1.319267,0.140268 0.108343,0.07715 0.239177,0.24124 0.29074,0.364649 0.147459,0.352917 0.03204,0.572276 -0.656243,1.247254 l -0.609768,0.597977 -0.338133,0 c -0.337579,0 -0.339139,-9.74e-4 -0.952595,-0.594436 l 0,0 z"
       style="fill:#888a85;fill-opacity:1" />
  </g>
</svg>
